<?xml version="1.0" encoding="utf-8"?>
<svg version="1.1" xmlns:xlink="http://www.w3.org/1999/xlink" width="110px" height="36px" xmlns="http://www.w3.org/2000/svg">
  <defs>
    <mask fill="white" id="clip185">
      <path d="M 0 32  L 0 4  C 0 1.76  1.75999999999999 0  4 0  L 100.340909090909 0  L 110 18.8227848101266  L 100.340909090909 36  L 4 36  C 1.75999999999999 36  0 34.24  0 32  Z " fill-rule="evenodd" />
    </mask>
  </defs>
  <g transform="matrix(1 0 0 1 0 1 )">
    <path d="M 0 32  L 0 4  C 0 1.76  1.75999999999999 0  4 0  L 100.340909090909 0  L 110 18.8227848101266  L 100.340909090909 36  L 4 36  C 1.75999999999999 36  0 34.24  0 32  Z " fill-rule="nonzero" fill="#ecf5ff" stroke="none" transform="matrix(1 0 0 1 0 -1 )" />
    <path d="M 0 32  L 0 4  C 0 1.76  1.75999999999999 0  4 0  L 100.340909090909 0  L 110 18.8227848101266  L 100.340909090909 36  L 4 36  C 1.75999999999999 36  0 34.24  0 32  Z " stroke-width="2" stroke="#ebeef5" fill="none" transform="matrix(1 0 0 1 0 -1 )" mask="url(#clip185)" />
  </g>
</svg>